<?xml version="1.0" encoding="utf-8"?>
<!-- Generator: Adobe Illustrator 26.3.0, SVG Export Plug-In . SVG Version: 6.00 Build 0)  -->
<svg version="1.1" id="Capa_1" xmlns="http://www.w3.org/2000/svg" xmlns:xlink="http://www.w3.org/1999/xlink" x="0px" y="0px"
	 viewBox="0 0 92.3 35" style="enable-background:new 0 0 92.3 35;" xml:space="preserve">
<style type="text/css">
	.st0{fill:#A435F0;}
</style>
<path class="st0" d="M14.9,9l-7-4.1L0.8,9V4.9l7-4.1l7,4.1L14.9,9L14.9,9z"/>
<path d="M0.8,12.4h3.7v8.9c0,2.3,1.7,3.4,3.3,3.4c1.6,0,3.3-1.2,3.3-3.5v-8.9h3.7v9.2c0,2.1-0.7,3.8-2,4.9c-1.3,1.1-3,1.7-5,1.7
	c-2,0-3.7-0.5-5-1.7c-1.3-1.1-2-2.7-2-4.8C0.8,21.6,0.8,12.4,0.8,12.4z M46.7,23.5c-1.1,1-2.4,1.5-3.8,1.5c-2.6,0-4.4-1.5-4.6-3.8
	h11.9c0,0,0.1-0.8,0.1-1.5c0-2.2-0.7-4-2.1-5.5c-1.4-1.5-3.2-2.2-5.4-2.2c-2.3,0-4.3,0.7-5.8,2.2c-1.5,1.5-2.2,3.4-2.2,5.9v0.1
	c0,2.4,0.8,4.3,2.2,5.7c1.5,1.4,3.5,2.2,5.9,2.2c2.8,0,5-1.1,6.7-3C49.4,25.1,46.7,23.5,46.7,23.5z M39.7,16c0.8-0.6,1.8-1,3-1
	c1.1,0,1.9,0.3,2.7,1c0.7,0.6,1.1,1.4,1.2,2.2h-8.2C38.4,17.4,38.9,16.6,39.7,16L39.7,16z M29.2,6.5v7.3C28,12.7,26.1,12,24.3,12
	c-2.2,0-4,0.8-5.5,2.3c-1.5,1.5-2.2,3.4-2.2,5.7c0,2.3,0.7,4.2,2.2,5.7c1.5,1.5,3.3,2.3,5.5,2.3c2.5,0,4.1-1,4.9-1.7v1.4h3.6V6.5
	L29.2,6.5L29.2,6.5z M28.1,23.4c-0.9,0.9-2,1.3-3.3,1.3s-2.4-0.5-3.3-1.3c-0.9-0.9-1.3-2-1.3-3.3c0-1.3,0.4-2.5,1.3-3.3
	c0.9-0.9,1.9-1.3,3.3-1.3s2.4,0.5,3.3,1.3c0.9,0.9,1.4,2,1.4,3.3C29.5,21.4,29,22.5,28.1,23.4z M69,12.1c-2.8,0-4.2,1.1-5.2,2.3
	c-0.4-0.8-1.5-2.3-4.1-2.3c-2.2,0-3.5,1.1-4.1,1.9v-1.6H52v15.3h3.6v-8.8c0-2.1,1.3-3.6,3-3.6c1.7,0,2.7,1.3,2.7,3.4v9h3.6v-8.8
	c0-2.1,1.2-3.6,3-3.6c1.7,0,2.7,1.3,2.7,3.4v9h3.7v-9.5C74.3,14.2,72.2,12.1,69,12.1L69,12.1z"/>
<g id="Capa_2">
	<path d="M84.3,11.7c-4.4,0-8,3.6-8,8s3.6,8,8,8s8-3.6,8-8S88.8,11.7,84.3,11.7z M84.3,24.7c-2.6,0-4.8-2.1-4.8-4.8
		c0-2.6,2.1-4.8,4.8-4.8s4.8,2.1,4.8,4.8C89.1,22.5,87,24.7,84.3,24.7z"/>
</g>
</svg>
